<?xml version="1.0" encoding="UTF-8" standalone="no"?>
<!DOCTYPE svg PUBLIC "-//W3C//DTD SVG 1.1//EN"
 "http://www.w3.org/Graphics/SVG/1.1/DTD/svg11.dtd">
<!-- Generated by graphviz version 5.0.1 (20220820.1526)
 -->
<!-- Pages: 1 -->
<svg width="2334pt" height="100pt"
 viewBox="0.00 0.00 2334.00 100.00" xmlns="http://www.w3.org/2000/svg" xmlns:xlink="http://www.w3.org/1999/xlink">
<g id="graph0" class="graph" transform="scale(1 1) rotate(0) translate(4 96)">
<polygon fill="white" stroke="none" points="-4,4 -4,-96 2330,-96 2330,4 -4,4"/>
<!-- 4361491968 -->
<g id="node1" class="node">
<title>4361491968</title>
<polygon fill="none" stroke="black" points="1824,-8.5 1824,-44.5 1905,-44.5 1905,-8.5 1824,-8.5"/>
<text text-anchor="middle" x="1834" y="-22.8" font-family="Times,serif" font-size="14.00"> </text>
<polyline fill="none" stroke="black" points="1844,-8.5 1844,-44.5"/>
<text text-anchor="middle" x="1874.5" y="-22.8" font-family="Times,serif" font-size="14.00">55.0000</text>
</g>
<!-- 4361492160+ -->
<g id="node12" class="node">
<title>4361492160+</title>
<ellipse fill="none" stroke="black" cx="1968" cy="-73.5" rx="27" ry="18"/>
<text text-anchor="middle" x="1968" y="-69.8" font-family="Times,serif" font-size="14.00">+</text>
</g>
<!-- 4361491968&#45;&gt;4361492160+ -->
<g id="edge21" class="edge">
<title>4361491968&#45;&gt;4361492160+</title>
<path fill="none" stroke="black" d="M1904.45,-44.54C1914.96,-49.4 1926.18,-54.6 1936.18,-59.23"/>
<polygon fill="black" stroke="black" points="1934.77,-62.43 1945.32,-63.46 1937.72,-56.08 1934.77,-62.43"/>
</g>
<!-- 4361492352+ -->
<g id="node22" class="node">
<title>4361492352+</title>
<ellipse fill="none" stroke="black" cx="2175" cy="-49.5" rx="27" ry="18"/>
<text text-anchor="middle" x="2175" y="-45.8" font-family="Times,serif" font-size="14.00">+</text>
</g>
<!-- 4361491968&#45;&gt;4361492352+ -->
<g id="edge24" class="edge">
<title>4361491968&#45;&gt;4361492352+</title>
<path fill="none" stroke="black" d="M1905.2,-29.46C1965.56,-33.96 2079.54,-42.46 2137.77,-46.8"/>
<polygon fill="black" stroke="black" points="2137.73,-50.31 2147.97,-47.56 2138.25,-43.33 2137.73,-50.31"/>
</g>
<!-- 4361491968+ -->
<g id="node2" class="node">
<title>4361491968+</title>
<ellipse fill="none" stroke="black" cx="1761" cy="-26.5" rx="27" ry="18"/>
<text text-anchor="middle" x="1761" y="-22.8" font-family="Times,serif" font-size="14.00">+</text>
</g>
<!-- 4361491968+&#45;&gt;4361491968 -->
<g id="edge1" class="edge">
<title>4361491968+&#45;&gt;4361491968</title>
<path fill="none" stroke="black" d="M1788.14,-26.5C1795.91,-26.5 1804.69,-26.5 1813.45,-26.5"/>
<polygon fill="black" stroke="black" points="1813.65,-30 1823.65,-26.5 1813.65,-23 1813.65,-30"/>
</g>
<!-- 4361490816 -->
<g id="node3" class="node">
<title>4361490816</title>
<polygon fill="none" stroke="black" points="603,-8.5 603,-44.5 677,-44.5 677,-8.5 603,-8.5"/>
<text text-anchor="middle" x="613" y="-22.8" font-family="Times,serif" font-size="14.00"> </text>
<polyline fill="none" stroke="black" points="623,-8.5 623,-44.5"/>
<text text-anchor="middle" x="650" y="-22.8" font-family="Times,serif" font-size="14.00">3.0000</text>
</g>
<!-- 4361491008+ -->
<g id="node6" class="node">
<title>4361491008+</title>
<ellipse fill="none" stroke="black" cx="740" cy="-73.5" rx="27" ry="18"/>
<text text-anchor="middle" x="740" y="-69.8" font-family="Times,serif" font-size="14.00">+</text>
</g>
<!-- 4361490816&#45;&gt;4361491008+ -->
<g id="edge27" class="edge">
<title>4361490816&#45;&gt;4361491008+</title>
<path fill="none" stroke="black" d="M677.21,-43.87C687.54,-48.82 698.69,-54.17 708.63,-58.94"/>
<polygon fill="black" stroke="black" points="707.2,-62.13 717.73,-63.3 710.23,-55.82 707.2,-62.13"/>
</g>
<!-- 4361491200+ -->
<g id="node14" class="node">
<title>4361491200+</title>
<ellipse fill="none" stroke="black" cx="940" cy="-26.5" rx="27" ry="18"/>
<text text-anchor="middle" x="940" y="-22.8" font-family="Times,serif" font-size="14.00">+</text>
</g>
<!-- 4361490816&#45;&gt;4361491200+ -->
<g id="edge28" class="edge">
<title>4361490816&#45;&gt;4361491200+</title>
<path fill="none" stroke="black" d="M677.24,-26.5C734.48,-26.5 845.19,-26.5 902.56,-26.5"/>
<polygon fill="black" stroke="black" points="902.62,-30 912.62,-26.5 902.62,-23 902.62,-30"/>
</g>
<!-- 4361490816+ -->
<g id="node4" class="node">
<title>4361490816+</title>
<ellipse fill="none" stroke="black" cx="540" cy="-26.5" rx="27" ry="18"/>
<text text-anchor="middle" x="540" y="-22.8" font-family="Times,serif" font-size="14.00">+</text>
</g>
<!-- 4361490816+&#45;&gt;4361490816 -->
<g id="edge2" class="edge">
<title>4361490816+&#45;&gt;4361490816</title>
<path fill="none" stroke="black" d="M567,-26.5C574.91,-26.5 583.85,-26.5 592.68,-26.5"/>
<polygon fill="black" stroke="black" points="592.91,-30 602.91,-26.5 592.91,-23 592.91,-30"/>
</g>
<!-- 4361491008 -->
<g id="node5" class="node">
<title>4361491008</title>
<polygon fill="none" stroke="black" points="803,-55.5 803,-91.5 877,-91.5 877,-55.5 803,-55.5"/>
<text text-anchor="middle" x="813" y="-69.8" font-family="Times,serif" font-size="14.00"> </text>
<polyline fill="none" stroke="black" points="823,-55.5 823,-91.5"/>
<text text-anchor="middle" x="850" y="-69.8" font-family="Times,serif" font-size="14.00">5.0000</text>
</g>
<!-- 4361491008&#45;&gt;4361491200+ -->
<g id="edge19" class="edge">
<title>4361491008&#45;&gt;4361491200+</title>
<path fill="none" stroke="black" d="M877.21,-56.13C887.54,-51.18 898.69,-45.83 908.63,-41.06"/>
<polygon fill="black" stroke="black" points="910.23,-44.18 917.73,-36.7 907.2,-37.87 910.23,-44.18"/>
</g>
<!-- 4361491392+ -->
<g id="node24" class="node">
<title>4361491392+</title>
<ellipse fill="none" stroke="black" cx="1140" cy="-73.5" rx="27" ry="18"/>
<text text-anchor="middle" x="1140" y="-69.8" font-family="Times,serif" font-size="14.00">+</text>
</g>
<!-- 4361491008&#45;&gt;4361491392+ -->
<g id="edge22" class="edge">
<title>4361491008&#45;&gt;4361491392+</title>
<path fill="none" stroke="black" d="M877.24,-73.5C934.48,-73.5 1045.19,-73.5 1102.56,-73.5"/>
<polygon fill="black" stroke="black" points="1102.62,-77 1112.62,-73.5 1102.62,-70 1102.62,-77"/>
</g>
<!-- 4361491008+&#45;&gt;4361491008 -->
<g id="edge3" class="edge">
<title>4361491008+&#45;&gt;4361491008</title>
<path fill="none" stroke="black" d="M767,-73.5C774.91,-73.5 783.85,-73.5 792.68,-73.5"/>
<polygon fill="black" stroke="black" points="792.91,-77 802.91,-73.5 792.91,-70 792.91,-77"/>
</g>
<!-- 4361491584 -->
<g id="node7" class="node">
<title>4361491584</title>
<polygon fill="none" stroke="black" points="1410,-8.5 1410,-44.5 1491,-44.5 1491,-8.5 1410,-8.5"/>
<text text-anchor="middle" x="1420" y="-22.8" font-family="Times,serif" font-size="14.00"> </text>
<polyline fill="none" stroke="black" points="1430,-8.5 1430,-44.5"/>
<text text-anchor="middle" x="1460.5" y="-22.8" font-family="Times,serif" font-size="14.00">21.0000</text>
</g>
<!-- 4361491584&#45;&gt;4361491968+ -->
<g id="edge14" class="edge">
<title>4361491584&#45;&gt;4361491968+</title>
<path fill="none" stroke="black" d="M1491.2,-26.5C1551.56,-26.5 1665.54,-26.5 1723.77,-26.5"/>
<polygon fill="black" stroke="black" points="1723.97,-30 1733.97,-26.5 1723.97,-23 1723.97,-30"/>
</g>
<!-- 4361491776+ -->
<g id="node19" class="node">
<title>4361491776+</title>
<ellipse fill="none" stroke="black" cx="1554" cy="-73.5" rx="27" ry="18"/>
<text text-anchor="middle" x="1554" y="-69.8" font-family="Times,serif" font-size="14.00">+</text>
</g>
<!-- 4361491584&#45;&gt;4361491776+ -->
<g id="edge13" class="edge">
<title>4361491584&#45;&gt;4361491776+</title>
<path fill="none" stroke="black" d="M1490.45,-44.54C1500.96,-49.4 1512.18,-54.6 1522.18,-59.23"/>
<polygon fill="black" stroke="black" points="1520.77,-62.43 1531.32,-63.46 1523.72,-56.08 1520.77,-62.43"/>
</g>
<!-- 4361491584+ -->
<g id="node8" class="node">
<title>4361491584+</title>
<ellipse fill="none" stroke="black" cx="1347" cy="-26.5" rx="27" ry="18"/>
<text text-anchor="middle" x="1347" y="-22.8" font-family="Times,serif" font-size="14.00">+</text>
</g>
<!-- 4361491584+&#45;&gt;4361491584 -->
<g id="edge4" class="edge">
<title>4361491584+&#45;&gt;4361491584</title>
<path fill="none" stroke="black" d="M1374.14,-26.5C1381.91,-26.5 1390.69,-26.5 1399.45,-26.5"/>
<polygon fill="black" stroke="black" points="1399.65,-30 1409.65,-26.5 1399.65,-23 1399.65,-30"/>
</g>
<!-- 4355760784 -->
<g id="node9" class="node">
<title>4355760784</title>
<polygon fill="none" stroke="black" points="403,-55.5 403,-91.5 477,-91.5 477,-55.5 403,-55.5"/>
<text text-anchor="middle" x="413" y="-69.8" font-family="Times,serif" font-size="14.00"> </text>
<polyline fill="none" stroke="black" points="423,-55.5 423,-91.5"/>
<text text-anchor="middle" x="450" y="-69.8" font-family="Times,serif" font-size="14.00">2.0000</text>
</g>
<!-- 4355760784&#45;&gt;4361490816+ -->
<g id="edge18" class="edge">
<title>4355760784&#45;&gt;4361490816+</title>
<path fill="none" stroke="black" d="M477.21,-56.13C487.54,-51.18 498.69,-45.83 508.63,-41.06"/>
<polygon fill="black" stroke="black" points="510.23,-44.18 517.73,-36.7 507.2,-37.87 510.23,-44.18"/>
</g>
<!-- 4355760784&#45;&gt;4361491008+ -->
<g id="edge20" class="edge">
<title>4355760784&#45;&gt;4361491008+</title>
<path fill="none" stroke="black" d="M477.24,-73.5C534.48,-73.5 645.19,-73.5 702.56,-73.5"/>
<polygon fill="black" stroke="black" points="702.62,-77 712.62,-73.5 702.62,-70 702.62,-77"/>
</g>
<!-- 4355760784+ -->
<g id="node10" class="node">
<title>4355760784+</title>
<ellipse fill="none" stroke="black" cx="340" cy="-73.5" rx="27" ry="18"/>
<text text-anchor="middle" x="340" y="-69.8" font-family="Times,serif" font-size="14.00">+</text>
</g>
<!-- 4355760784+&#45;&gt;4355760784 -->
<g id="edge5" class="edge">
<title>4355760784+&#45;&gt;4355760784</title>
<path fill="none" stroke="black" d="M367,-73.5C374.91,-73.5 383.85,-73.5 392.68,-73.5"/>
<polygon fill="black" stroke="black" points="392.91,-77 402.91,-73.5 392.91,-70 392.91,-77"/>
</g>
<!-- 4361492160 -->
<g id="node11" class="node">
<title>4361492160</title>
<polygon fill="none" stroke="black" points="2031,-55.5 2031,-91.5 2112,-91.5 2112,-55.5 2031,-55.5"/>
<text text-anchor="middle" x="2041" y="-69.8" font-family="Times,serif" font-size="14.00"> </text>
<polyline fill="none" stroke="black" points="2051,-55.5 2051,-91.5"/>
<text text-anchor="middle" x="2081.5" y="-69.8" font-family="Times,serif" font-size="14.00">89.0000</text>
</g>
<!-- 4361492160&#45;&gt;4361492352+ -->
<g id="edge12" class="edge">
<title>4361492160&#45;&gt;4361492352+</title>
<path fill="none" stroke="black" d="M2112.03,-64.15C2121.07,-62.01 2130.62,-59.76 2139.43,-57.67"/>
<polygon fill="black" stroke="black" points="2140.44,-61.03 2149.37,-55.32 2138.83,-54.22 2140.44,-61.03"/>
</g>
<!-- 4361492160+&#45;&gt;4361492160 -->
<g id="edge6" class="edge">
<title>4361492160+&#45;&gt;4361492160</title>
<path fill="none" stroke="black" d="M1995.14,-73.5C2002.91,-73.5 2011.69,-73.5 2020.45,-73.5"/>
<polygon fill="black" stroke="black" points="2020.65,-77 2030.65,-73.5 2020.65,-70 2020.65,-77"/>
</g>
<!-- 4361491200 -->
<g id="node13" class="node">
<title>4361491200</title>
<polygon fill="none" stroke="black" points="1003,-8.5 1003,-44.5 1077,-44.5 1077,-8.5 1003,-8.5"/>
<text text-anchor="middle" x="1013" y="-22.8" font-family="Times,serif" font-size="14.00"> </text>
<polyline fill="none" stroke="black" points="1023,-8.5 1023,-44.5"/>
<text text-anchor="middle" x="1050" y="-22.8" font-family="Times,serif" font-size="14.00">8.0000</text>
</g>
<!-- 4361491200&#45;&gt;4361491584+ -->
<g id="edge33" class="edge">
<title>4361491200&#45;&gt;4361491584+</title>
<path fill="none" stroke="black" d="M1077.19,-26.5C1135.71,-26.5 1250.52,-26.5 1309.35,-26.5"/>
<polygon fill="black" stroke="black" points="1309.65,-30 1319.65,-26.5 1309.65,-23 1309.65,-30"/>
</g>
<!-- 4361491200&#45;&gt;4361491392+ -->
<g id="edge32" class="edge">
<title>4361491200&#45;&gt;4361491392+</title>
<path fill="none" stroke="black" d="M1077.21,-43.87C1087.54,-48.82 1098.69,-54.17 1108.63,-58.94"/>
<polygon fill="black" stroke="black" points="1107.2,-62.13 1117.73,-63.3 1110.23,-55.82 1107.2,-62.13"/>
</g>
<!-- 4361491200+&#45;&gt;4361491200 -->
<g id="edge7" class="edge">
<title>4361491200+&#45;&gt;4361491200</title>
<path fill="none" stroke="black" d="M967,-26.5C974.91,-26.5 983.85,-26.5 992.68,-26.5"/>
<polygon fill="black" stroke="black" points="992.91,-30 1002.91,-26.5 992.91,-23 992.91,-30"/>
</g>
<!-- 4334778112 -->
<g id="node15" class="node">
<title>4334778112</title>
<polygon fill="none" stroke="black" points="203,-8.5 203,-44.5 277,-44.5 277,-8.5 203,-8.5"/>
<text text-anchor="middle" x="213" y="-22.8" font-family="Times,serif" font-size="14.00"> </text>
<polyline fill="none" stroke="black" points="223,-8.5 223,-44.5"/>
<text text-anchor="middle" x="250" y="-22.8" font-family="Times,serif" font-size="14.00">1.0000</text>
</g>
<!-- 4334778112&#45;&gt;4361490816+ -->
<g id="edge23" class="edge">
<title>4334778112&#45;&gt;4361490816+</title>
<path fill="none" stroke="black" d="M277.24,-26.5C334.48,-26.5 445.19,-26.5 502.56,-26.5"/>
<polygon fill="black" stroke="black" points="502.62,-30 512.62,-26.5 502.62,-23 502.62,-30"/>
</g>
<!-- 4334778112&#45;&gt;4355760784+ -->
<g id="edge16" class="edge">
<title>4334778112&#45;&gt;4355760784+</title>
<path fill="none" stroke="black" d="M277.21,-43.87C287.54,-48.82 298.69,-54.17 308.63,-58.94"/>
<polygon fill="black" stroke="black" points="307.2,-62.13 317.73,-63.3 310.23,-55.82 307.2,-62.13"/>
</g>
<!-- 4334778112+ -->
<g id="node16" class="node">
<title>4334778112+</title>
<ellipse fill="none" stroke="black" cx="140" cy="-26.5" rx="27" ry="18"/>
<text text-anchor="middle" x="140" y="-22.8" font-family="Times,serif" font-size="14.00">+</text>
</g>
<!-- 4334778112+&#45;&gt;4334778112 -->
<g id="edge8" class="edge">
<title>4334778112+&#45;&gt;4334778112</title>
<path fill="none" stroke="black" d="M167,-26.5C174.91,-26.5 183.85,-26.5 192.68,-26.5"/>
<polygon fill="black" stroke="black" points="192.91,-30 202.91,-26.5 192.91,-23 192.91,-30"/>
</g>
<!-- 4334780224 -->
<g id="node17" class="node">
<title>4334780224</title>
<polygon fill="none" stroke="black" points="0,-55.5 0,-91.5 77,-91.5 77,-55.5 0,-55.5"/>
<text text-anchor="middle" x="11.5" y="-69.8" font-family="Times,serif" font-size="14.00">b</text>
<polyline fill="none" stroke="black" points="23,-55.5 23,-91.5"/>
<text text-anchor="middle" x="50" y="-69.8" font-family="Times,serif" font-size="14.00">1.0000</text>
</g>
<!-- 4334780224&#45;&gt;4355760784+ -->
<g id="edge15" class="edge">
<title>4334780224&#45;&gt;4355760784+</title>
<path fill="none" stroke="black" d="M77.13,-73.5C135.11,-73.5 245.55,-73.5 302.71,-73.5"/>
<polygon fill="black" stroke="black" points="302.74,-77 312.74,-73.5 302.74,-70 302.74,-77"/>
</g>
<!-- 4334780224&#45;&gt;4334778112+ -->
<g id="edge17" class="edge">
<title>4334780224&#45;&gt;4334778112+</title>
<path fill="none" stroke="black" d="M77.12,-55.73C87.46,-50.85 98.55,-45.61 108.44,-40.94"/>
<polygon fill="black" stroke="black" points="109.95,-44.09 117.49,-36.66 106.96,-37.76 109.95,-44.09"/>
</g>
<!-- 4361491776 -->
<g id="node18" class="node">
<title>4361491776</title>
<polygon fill="none" stroke="black" points="1617,-55.5 1617,-91.5 1698,-91.5 1698,-55.5 1617,-55.5"/>
<text text-anchor="middle" x="1627" y="-69.8" font-family="Times,serif" font-size="14.00"> </text>
<polyline fill="none" stroke="black" points="1637,-55.5 1637,-91.5"/>
<text text-anchor="middle" x="1667.5" y="-69.8" font-family="Times,serif" font-size="14.00">34.0000</text>
</g>
<!-- 4361491776&#45;&gt;4361491968+ -->
<g id="edge29" class="edge">
<title>4361491776&#45;&gt;4361491968+</title>
<path fill="none" stroke="black" d="M1697.45,-55.46C1707.96,-50.6 1719.18,-45.4 1729.18,-40.77"/>
<polygon fill="black" stroke="black" points="1730.72,-43.92 1738.32,-36.54 1727.77,-37.57 1730.72,-43.92"/>
</g>
<!-- 4361491776&#45;&gt;4361492160+ -->
<g id="edge31" class="edge">
<title>4361491776&#45;&gt;4361492160+</title>
<path fill="none" stroke="black" d="M1698.2,-73.5C1758.56,-73.5 1872.54,-73.5 1930.77,-73.5"/>
<polygon fill="black" stroke="black" points="1930.97,-77 1940.97,-73.5 1930.97,-70 1930.97,-77"/>
</g>
<!-- 4361491776+&#45;&gt;4361491776 -->
<g id="edge9" class="edge">
<title>4361491776+&#45;&gt;4361491776</title>
<path fill="none" stroke="black" d="M1581.14,-73.5C1588.91,-73.5 1597.69,-73.5 1606.45,-73.5"/>
<polygon fill="black" stroke="black" points="1606.65,-77 1616.65,-73.5 1606.65,-70 1606.65,-77"/>
</g>
<!-- 4334780272 -->
<g id="node20" class="node">
<title>4334780272</title>
<polygon fill="none" stroke="black" points="0,-0.5 0,-36.5 77,-36.5 77,-0.5 0,-0.5"/>
<text text-anchor="middle" x="11.5" y="-14.8" font-family="Times,serif" font-size="14.00">a</text>
<polyline fill="none" stroke="black" points="23,-0.5 23,-36.5"/>
<text text-anchor="middle" x="50" y="-14.8" font-family="Times,serif" font-size="14.00">0.0000</text>
</g>
<!-- 4334780272&#45;&gt;4334778112+ -->
<g id="edge30" class="edge">
<title>4334780272&#45;&gt;4334778112+</title>
<path fill="none" stroke="black" d="M77.12,-21.52C85.55,-22.2 94.48,-22.92 102.86,-23.59"/>
<polygon fill="black" stroke="black" points="102.84,-27.1 113.09,-24.42 103.4,-20.13 102.84,-27.1"/>
</g>
<!-- 4361492352 -->
<g id="node21" class="node">
<title>4361492352</title>
<polygon fill="none" stroke="black" points="2238,-31.5 2238,-67.5 2326,-67.5 2326,-31.5 2238,-31.5"/>
<text text-anchor="middle" x="2248" y="-45.8" font-family="Times,serif" font-size="14.00"> </text>
<polyline fill="none" stroke="black" points="2258,-31.5 2258,-67.5"/>
<text text-anchor="middle" x="2292" y="-45.8" font-family="Times,serif" font-size="14.00">144.0000</text>
</g>
<!-- 4361492352+&#45;&gt;4361492352 -->
<g id="edge10" class="edge">
<title>4361492352+&#45;&gt;4361492352</title>
<path fill="none" stroke="black" d="M2202.23,-49.5C2210.08,-49.5 2218.99,-49.5 2227.93,-49.5"/>
<polygon fill="black" stroke="black" points="2227.97,-53 2237.97,-49.5 2227.97,-46 2227.97,-53"/>
</g>
<!-- 4361491392 -->
<g id="node23" class="node">
<title>4361491392</title>
<polygon fill="none" stroke="black" points="1203,-55.5 1203,-91.5 1284,-91.5 1284,-55.5 1203,-55.5"/>
<text text-anchor="middle" x="1213" y="-69.8" font-family="Times,serif" font-size="14.00"> </text>
<polyline fill="none" stroke="black" points="1223,-55.5 1223,-91.5"/>
<text text-anchor="middle" x="1253.5" y="-69.8" font-family="Times,serif" font-size="14.00">13.0000</text>
</g>
<!-- 4361491392&#45;&gt;4361491584+ -->
<g id="edge25" class="edge">
<title>4361491392&#45;&gt;4361491584+</title>
<path fill="none" stroke="black" d="M1283.45,-55.46C1293.96,-50.6 1305.18,-45.4 1315.18,-40.77"/>
<polygon fill="black" stroke="black" points="1316.72,-43.92 1324.32,-36.54 1313.77,-37.57 1316.72,-43.92"/>
</g>
<!-- 4361491392&#45;&gt;4361491776+ -->
<g id="edge26" class="edge">
<title>4361491392&#45;&gt;4361491776+</title>
<path fill="none" stroke="black" d="M1284.2,-73.5C1344.56,-73.5 1458.54,-73.5 1516.77,-73.5"/>
<polygon fill="black" stroke="black" points="1516.97,-77 1526.97,-73.5 1516.97,-70 1516.97,-77"/>
</g>
<!-- 4361491392+&#45;&gt;4361491392 -->
<g id="edge11" class="edge">
<title>4361491392+&#45;&gt;4361491392</title>
<path fill="none" stroke="black" d="M1167.14,-73.5C1174.91,-73.5 1183.69,-73.5 1192.45,-73.5"/>
<polygon fill="black" stroke="black" points="1192.65,-77 1202.65,-73.5 1192.65,-70 1192.65,-77"/>
</g>
</g>
</svg>
