<?xml version="1.0" encoding="UTF-8" standalone="no"?>
<!DOCTYPE svg PUBLIC "-//W3C//DTD SVG 1.1//EN"
 "http://www.w3.org/Graphics/SVG/1.1/DTD/svg11.dtd">
<!-- Generated by graphviz version 5.0.1 (20220820.1526)
 -->
<!-- Pages: 1 -->
<svg width="140pt" height="1760pt"
 viewBox="0.00 0.00 139.50 1760.00" xmlns="http://www.w3.org/2000/svg" xmlns:xlink="http://www.w3.org/1999/xlink">
<g id="graph0" class="graph" transform="scale(1 1) rotate(0) translate(4 1756)">
<polygon fill="white" stroke="none" points="-4,4 -4,-1756 135.5,-1756 135.5,4 -4,4"/>
<!-- 4633466416 -->
<g id="node1" class="node">
<title>4633466416</title>
<polygon fill="none" stroke="black" points="70.5,-465.5 70.5,-511.5 131.5,-511.5 131.5,-465.5 70.5,-465.5"/>
<text text-anchor="middle" x="101" y="-496.3" font-family="Times,serif" font-size="14.00"> </text>
<polyline fill="none" stroke="black" points="70.5,-488.5 131.5,-488.5"/>
<text text-anchor="middle" x="101" y="-473.3" font-family="Times,serif" font-size="14.00">34.0000</text>
</g>
<!-- 4633466608+ -->
<g id="node12" class="node">
<title>4633466608+</title>
<ellipse fill="none" stroke="black" cx="42" cy="-411" rx="27" ry="18"/>
<text text-anchor="middle" x="42" y="-407.3" font-family="Times,serif" font-size="14.00">+</text>
</g>
<!-- 4633466416&#45;&gt;4633466608+ -->
<g id="edge19" class="edge">
<title>4633466416&#45;&gt;4633466608+</title>
<path fill="none" stroke="black" d="M83.62,-465.26C76.26,-455.84 67.68,-444.86 60.23,-435.32"/>
<polygon fill="black" stroke="black" points="62.94,-433.12 54.03,-427.39 57.43,-437.43 62.94,-433.12"/>
</g>
<!-- 4633466800+ -->
<g id="node20" class="node">
<title>4633466800+</title>
<ellipse fill="none" stroke="black" cx="101" cy="-256" rx="27" ry="18"/>
<text text-anchor="middle" x="101" y="-252.3" font-family="Times,serif" font-size="14.00">+</text>
</g>
<!-- 4633466416&#45;&gt;4633466800+ -->
<g id="edge20" class="edge">
<title>4633466416&#45;&gt;4633466800+</title>
<path fill="none" stroke="black" d="M101,-465.4C101,-423.05 101,-330.57 101,-284.38"/>
<polygon fill="black" stroke="black" points="104.5,-284.22 101,-274.22 97.5,-284.22 104.5,-284.22"/>
</g>
<!-- 4633466416+ -->
<g id="node2" class="node">
<title>4633466416+</title>
<ellipse fill="none" stroke="black" cx="101" cy="-566" rx="27" ry="18"/>
<text text-anchor="middle" x="101" y="-562.3" font-family="Times,serif" font-size="14.00">+</text>
</g>
<!-- 4633466416+&#45;&gt;4633466416 -->
<g id="edge1" class="edge">
<title>4633466416+&#45;&gt;4633466416</title>
<path fill="none" stroke="black" d="M101,-547.87C101,-540.18 101,-530.83 101,-521.9"/>
<polygon fill="black" stroke="black" points="104.5,-521.73 101,-511.73 97.5,-521.73 104.5,-521.73"/>
</g>
<!-- 4361413168 -->
<g id="node3" class="node">
<title>4361413168</title>
<polygon fill="none" stroke="black" points="17,-1550.5 17,-1596.5 71,-1596.5 71,-1550.5 17,-1550.5"/>
<text text-anchor="middle" x="44" y="-1581.3" font-family="Times,serif" font-size="14.00"> </text>
<polyline fill="none" stroke="black" points="17,-1573.5 71,-1573.5"/>
<text text-anchor="middle" x="44" y="-1558.3" font-family="Times,serif" font-size="14.00">1.0000</text>
</g>
<!-- 4633465456+ -->
<g id="node8" class="node">
<title>4633465456+</title>
<ellipse fill="none" stroke="black" cx="44" cy="-1341" rx="27" ry="18"/>
<text text-anchor="middle" x="44" y="-1337.3" font-family="Times,serif" font-size="14.00">+</text>
</g>
<!-- 4361413168&#45;&gt;4633465456+ -->
<g id="edge13" class="edge">
<title>4361413168&#45;&gt;4633465456+</title>
<path fill="none" stroke="black" d="M44,-1550.4C44,-1508.05 44,-1415.57 44,-1369.38"/>
<polygon fill="black" stroke="black" points="47.5,-1369.22 44,-1359.22 40.5,-1369.22 47.5,-1369.22"/>
</g>
<!-- 4361413552+ -->
<g id="node18" class="node">
<title>4361413552+</title>
<ellipse fill="none" stroke="black" cx="99" cy="-1496" rx="27" ry="18"/>
<text text-anchor="middle" x="99" y="-1492.3" font-family="Times,serif" font-size="14.00">+</text>
</g>
<!-- 4361413168&#45;&gt;4361413552+ -->
<g id="edge24" class="edge">
<title>4361413168&#45;&gt;4361413552+</title>
<path fill="none" stroke="black" d="M60.2,-1550.26C67,-1540.93 74.9,-1530.08 81.8,-1520.61"/>
<polygon fill="black" stroke="black" points="84.73,-1522.54 87.79,-1512.39 79.07,-1518.41 84.73,-1522.54"/>
</g>
<!-- 4361413168+ -->
<g id="node4" class="node">
<title>4361413168+</title>
<ellipse fill="none" stroke="black" cx="44" cy="-1651" rx="27" ry="18"/>
<text text-anchor="middle" x="44" y="-1647.3" font-family="Times,serif" font-size="14.00">+</text>
</g>
<!-- 4361413168+&#45;&gt;4361413168 -->
<g id="edge2" class="edge">
<title>4361413168+&#45;&gt;4361413168</title>
<path fill="none" stroke="black" d="M44,-1632.87C44,-1625.18 44,-1615.83 44,-1606.9"/>
<polygon fill="black" stroke="black" points="47.5,-1606.73 44,-1596.73 40.5,-1606.73 47.5,-1606.73"/>
</g>
<!-- 4633466992 -->
<g id="node5" class="node">
<title>4633466992</title>
<polygon fill="none" stroke="black" points="37,-0.5 37,-46.5 105,-46.5 105,-0.5 37,-0.5"/>
<text text-anchor="middle" x="71" y="-31.3" font-family="Times,serif" font-size="14.00"> </text>
<polyline fill="none" stroke="black" points="37,-23.5 105,-23.5"/>
<text text-anchor="middle" x="71" y="-8.3" font-family="Times,serif" font-size="14.00">144.0000</text>
</g>
<!-- 4633466992+ -->
<g id="node6" class="node">
<title>4633466992+</title>
<ellipse fill="none" stroke="black" cx="71" cy="-101" rx="27" ry="18"/>
<text text-anchor="middle" x="71" y="-97.3" font-family="Times,serif" font-size="14.00">+</text>
</g>
<!-- 4633466992+&#45;&gt;4633466992 -->
<g id="edge3" class="edge">
<title>4633466992+&#45;&gt;4633466992</title>
<path fill="none" stroke="black" d="M71,-82.87C71,-75.18 71,-65.83 71,-56.9"/>
<polygon fill="black" stroke="black" points="74.5,-56.73 71,-46.73 67.5,-56.73 74.5,-56.73"/>
</g>
<!-- 4633465456 -->
<g id="node7" class="node">
<title>4633465456</title>
<polygon fill="none" stroke="black" points="17,-1240.5 17,-1286.5 71,-1286.5 71,-1240.5 17,-1240.5"/>
<text text-anchor="middle" x="44" y="-1271.3" font-family="Times,serif" font-size="14.00"> </text>
<polyline fill="none" stroke="black" points="17,-1263.5 71,-1263.5"/>
<text text-anchor="middle" x="44" y="-1248.3" font-family="Times,serif" font-size="14.00">3.0000</text>
</g>
<!-- 4633465648+ -->
<g id="node14" class="node">
<title>4633465648+</title>
<ellipse fill="none" stroke="black" cx="99" cy="-1186" rx="27" ry="18"/>
<text text-anchor="middle" x="99" y="-1182.3" font-family="Times,serif" font-size="14.00">+</text>
</g>
<!-- 4633465456&#45;&gt;4633465648+ -->
<g id="edge15" class="edge">
<title>4633465456&#45;&gt;4633465648+</title>
<path fill="none" stroke="black" d="M60.2,-1240.26C67,-1230.93 74.9,-1220.08 81.8,-1210.61"/>
<polygon fill="black" stroke="black" points="84.73,-1212.54 87.79,-1202.39 79.07,-1208.41 84.73,-1212.54"/>
</g>
<!-- 4633465840+ -->
<g id="node24" class="node">
<title>4633465840+</title>
<ellipse fill="none" stroke="black" cx="44" cy="-1031" rx="27" ry="18"/>
<text text-anchor="middle" x="44" y="-1027.3" font-family="Times,serif" font-size="14.00">+</text>
</g>
<!-- 4633465456&#45;&gt;4633465840+ -->
<g id="edge17" class="edge">
<title>4633465456&#45;&gt;4633465840+</title>
<path fill="none" stroke="black" d="M44,-1240.4C44,-1198.05 44,-1105.57 44,-1059.38"/>
<polygon fill="black" stroke="black" points="47.5,-1059.22 44,-1049.22 40.5,-1059.22 47.5,-1059.22"/>
</g>
<!-- 4633465456+&#45;&gt;4633465456 -->
<g id="edge4" class="edge">
<title>4633465456+&#45;&gt;4633465456</title>
<path fill="none" stroke="black" d="M44,-1322.87C44,-1315.18 44,-1305.83 44,-1296.9"/>
<polygon fill="black" stroke="black" points="47.5,-1296.73 44,-1286.73 40.5,-1296.73 47.5,-1296.73"/>
</g>
<!-- 4633466032 -->
<g id="node9" class="node">
<title>4633466032</title>
<polygon fill="none" stroke="black" points="70.5,-775.5 70.5,-821.5 131.5,-821.5 131.5,-775.5 70.5,-775.5"/>
<text text-anchor="middle" x="101" y="-806.3" font-family="Times,serif" font-size="14.00"> </text>
<polyline fill="none" stroke="black" points="70.5,-798.5 131.5,-798.5"/>
<text text-anchor="middle" x="101" y="-783.3" font-family="Times,serif" font-size="14.00">13.0000</text>
</g>
<!-- 4633466032&#45;&gt;4633466416+ -->
<g id="edge14" class="edge">
<title>4633466032&#45;&gt;4633466416+</title>
<path fill="none" stroke="black" d="M101,-775.4C101,-733.05 101,-640.57 101,-594.38"/>
<polygon fill="black" stroke="black" points="104.5,-594.22 101,-584.22 97.5,-594.22 104.5,-594.22"/>
</g>
<!-- 4633466224+ -->
<g id="node22" class="node">
<title>4633466224+</title>
<ellipse fill="none" stroke="black" cx="42" cy="-721" rx="27" ry="18"/>
<text text-anchor="middle" x="42" y="-717.3" font-family="Times,serif" font-size="14.00">+</text>
</g>
<!-- 4633466032&#45;&gt;4633466224+ -->
<g id="edge12" class="edge">
<title>4633466032&#45;&gt;4633466224+</title>
<path fill="none" stroke="black" d="M83.62,-775.26C76.26,-765.84 67.68,-754.86 60.23,-745.32"/>
<polygon fill="black" stroke="black" points="62.94,-743.12 54.03,-737.39 57.43,-747.43 62.94,-743.12"/>
</g>
<!-- 4633466032+ -->
<g id="node10" class="node">
<title>4633466032+</title>
<ellipse fill="none" stroke="black" cx="99" cy="-876" rx="27" ry="18"/>
<text text-anchor="middle" x="99" y="-872.3" font-family="Times,serif" font-size="14.00">+</text>
</g>
<!-- 4633466032+&#45;&gt;4633466032 -->
<g id="edge5" class="edge">
<title>4633466032+&#45;&gt;4633466032</title>
<path fill="none" stroke="black" d="M99.45,-857.87C99.66,-850.18 99.91,-840.83 100.14,-831.9"/>
<polygon fill="black" stroke="black" points="103.65,-831.82 100.41,-821.73 96.65,-831.63 103.65,-831.82"/>
</g>
<!-- 4633466608 -->
<g id="node11" class="node">
<title>4633466608</title>
<polygon fill="none" stroke="black" points="11.5,-310.5 11.5,-356.5 72.5,-356.5 72.5,-310.5 11.5,-310.5"/>
<text text-anchor="middle" x="42" y="-341.3" font-family="Times,serif" font-size="14.00"> </text>
<polyline fill="none" stroke="black" points="11.5,-333.5 72.5,-333.5"/>
<text text-anchor="middle" x="42" y="-318.3" font-family="Times,serif" font-size="14.00">55.0000</text>
</g>
<!-- 4633466608&#45;&gt;4633466992+ -->
<g id="edge33" class="edge">
<title>4633466608&#45;&gt;4633466992+</title>
<path fill="none" stroke="black" d="M43.8,-310.29C46.67,-276.61 52.79,-210.65 61,-155 62.25,-146.53 63.88,-137.36 65.46,-129.05"/>
<polygon fill="black" stroke="black" points="68.92,-129.61 67.41,-119.13 62.05,-128.27 68.92,-129.61"/>
</g>
<!-- 4633466608&#45;&gt;4633466800+ -->
<g id="edge31" class="edge">
<title>4633466608&#45;&gt;4633466800+</title>
<path fill="none" stroke="black" d="M59.38,-310.26C66.74,-300.84 75.32,-289.86 82.77,-280.32"/>
<polygon fill="black" stroke="black" points="85.57,-282.43 88.97,-272.39 80.06,-278.12 85.57,-282.43"/>
</g>
<!-- 4633466608+&#45;&gt;4633466608 -->
<g id="edge6" class="edge">
<title>4633466608+&#45;&gt;4633466608</title>
<path fill="none" stroke="black" d="M42,-392.87C42,-385.18 42,-375.83 42,-366.9"/>
<polygon fill="black" stroke="black" points="45.5,-366.73 42,-356.73 38.5,-366.73 45.5,-366.73"/>
</g>
<!-- 4633465648 -->
<g id="node13" class="node">
<title>4633465648</title>
<polygon fill="none" stroke="black" points="72,-1085.5 72,-1131.5 126,-1131.5 126,-1085.5 72,-1085.5"/>
<text text-anchor="middle" x="99" y="-1116.3" font-family="Times,serif" font-size="14.00"> </text>
<polyline fill="none" stroke="black" points="72,-1108.5 126,-1108.5"/>
<text text-anchor="middle" x="99" y="-1093.3" font-family="Times,serif" font-size="14.00">5.0000</text>
</g>
<!-- 4633465648&#45;&gt;4633466032+ -->
<g id="edge30" class="edge">
<title>4633465648&#45;&gt;4633466032+</title>
<path fill="none" stroke="black" d="M99,-1085.4C99,-1043.05 99,-950.57 99,-904.38"/>
<polygon fill="black" stroke="black" points="102.5,-904.22 99,-894.22 95.5,-904.22 102.5,-904.22"/>
</g>
<!-- 4633465648&#45;&gt;4633465840+ -->
<g id="edge28" class="edge">
<title>4633465648&#45;&gt;4633465840+</title>
<path fill="none" stroke="black" d="M82.8,-1085.26C76,-1075.93 68.1,-1065.08 61.2,-1055.61"/>
<polygon fill="black" stroke="black" points="63.93,-1053.41 55.21,-1047.39 58.27,-1057.54 63.93,-1053.41"/>
</g>
<!-- 4633465648+&#45;&gt;4633465648 -->
<g id="edge7" class="edge">
<title>4633465648+&#45;&gt;4633465648</title>
<path fill="none" stroke="black" d="M99,-1167.87C99,-1160.18 99,-1150.83 99,-1141.9"/>
<polygon fill="black" stroke="black" points="102.5,-1141.73 99,-1131.73 95.5,-1141.73 102.5,-1141.73"/>
</g>
<!-- 4339924800 -->
<g id="node15" class="node">
<title>4339924800</title>
<polygon fill="none" stroke="black" points="72,-1705.5 72,-1751.5 126,-1751.5 126,-1705.5 72,-1705.5"/>
<text text-anchor="middle" x="99" y="-1736.3" font-family="Times,serif" font-size="14.00">b</text>
<polyline fill="none" stroke="black" points="72,-1728.5 126,-1728.5"/>
<text text-anchor="middle" x="99" y="-1713.3" font-family="Times,serif" font-size="14.00">1.0000</text>
</g>
<!-- 4339924800&#45;&gt;4361413168+ -->
<g id="edge29" class="edge">
<title>4339924800&#45;&gt;4361413168+</title>
<path fill="none" stroke="black" d="M82.8,-1705.26C76,-1695.93 68.1,-1685.08 61.2,-1675.61"/>
<polygon fill="black" stroke="black" points="63.93,-1673.41 55.21,-1667.39 58.27,-1677.54 63.93,-1673.41"/>
</g>
<!-- 4339924800&#45;&gt;4361413552+ -->
<g id="edge32" class="edge">
<title>4339924800&#45;&gt;4361413552+</title>
<path fill="none" stroke="black" d="M99,-1705.4C99,-1663.05 99,-1570.57 99,-1524.38"/>
<polygon fill="black" stroke="black" points="102.5,-1524.22 99,-1514.22 95.5,-1524.22 102.5,-1524.22"/>
</g>
<!-- 4339924848 -->
<g id="node16" class="node">
<title>4339924848</title>
<polygon fill="none" stroke="black" points="0,-1705.5 0,-1751.5 54,-1751.5 54,-1705.5 0,-1705.5"/>
<text text-anchor="middle" x="27" y="-1736.3" font-family="Times,serif" font-size="14.00">a</text>
<polyline fill="none" stroke="black" points="0,-1728.5 54,-1728.5"/>
<text text-anchor="middle" x="27" y="-1713.3" font-family="Times,serif" font-size="14.00">0.0000</text>
</g>
<!-- 4339924848&#45;&gt;4361413168+ -->
<g id="edge25" class="edge">
<title>4339924848&#45;&gt;4361413168+</title>
<path fill="none" stroke="black" d="M32.01,-1705.26C33.85,-1697.09 35.95,-1687.76 37.87,-1679.21"/>
<polygon fill="black" stroke="black" points="41.32,-1679.82 40.11,-1669.3 34.49,-1678.28 41.32,-1679.82"/>
</g>
<!-- 4361413552 -->
<g id="node17" class="node">
<title>4361413552</title>
<polygon fill="none" stroke="black" points="72,-1395.5 72,-1441.5 126,-1441.5 126,-1395.5 72,-1395.5"/>
<text text-anchor="middle" x="99" y="-1426.3" font-family="Times,serif" font-size="14.00"> </text>
<polyline fill="none" stroke="black" points="72,-1418.5 126,-1418.5"/>
<text text-anchor="middle" x="99" y="-1403.3" font-family="Times,serif" font-size="14.00">2.0000</text>
</g>
<!-- 4361413552&#45;&gt;4633465456+ -->
<g id="edge16" class="edge">
<title>4361413552&#45;&gt;4633465456+</title>
<path fill="none" stroke="black" d="M82.8,-1395.26C76,-1385.93 68.1,-1375.08 61.2,-1365.61"/>
<polygon fill="black" stroke="black" points="63.93,-1363.41 55.21,-1357.39 58.27,-1367.54 63.93,-1363.41"/>
</g>
<!-- 4361413552&#45;&gt;4633465648+ -->
<g id="edge18" class="edge">
<title>4361413552&#45;&gt;4633465648+</title>
<path fill="none" stroke="black" d="M99,-1395.4C99,-1353.05 99,-1260.57 99,-1214.38"/>
<polygon fill="black" stroke="black" points="102.5,-1214.22 99,-1204.22 95.5,-1214.22 102.5,-1214.22"/>
</g>
<!-- 4361413552+&#45;&gt;4361413552 -->
<g id="edge8" class="edge">
<title>4361413552+&#45;&gt;4361413552</title>
<path fill="none" stroke="black" d="M99,-1477.87C99,-1470.18 99,-1460.83 99,-1451.9"/>
<polygon fill="black" stroke="black" points="102.5,-1451.73 99,-1441.73 95.5,-1451.73 102.5,-1451.73"/>
</g>
<!-- 4633466800 -->
<g id="node19" class="node">
<title>4633466800</title>
<polygon fill="none" stroke="black" points="70.5,-155.5 70.5,-201.5 131.5,-201.5 131.5,-155.5 70.5,-155.5"/>
<text text-anchor="middle" x="101" y="-186.3" font-family="Times,serif" font-size="14.00"> </text>
<polyline fill="none" stroke="black" points="70.5,-178.5 131.5,-178.5"/>
<text text-anchor="middle" x="101" y="-163.3" font-family="Times,serif" font-size="14.00">89.0000</text>
</g>
<!-- 4633466800&#45;&gt;4633466992+ -->
<g id="edge22" class="edge">
<title>4633466800&#45;&gt;4633466992+</title>
<path fill="none" stroke="black" d="M92.16,-155.26C88.8,-146.79 84.93,-137.06 81.43,-128.25"/>
<polygon fill="black" stroke="black" points="84.63,-126.82 77.68,-118.81 78.12,-129.4 84.63,-126.82"/>
</g>
<!-- 4633466800+&#45;&gt;4633466800 -->
<g id="edge9" class="edge">
<title>4633466800+&#45;&gt;4633466800</title>
<path fill="none" stroke="black" d="M101,-237.87C101,-230.18 101,-220.83 101,-211.9"/>
<polygon fill="black" stroke="black" points="104.5,-211.73 101,-201.73 97.5,-211.73 104.5,-211.73"/>
</g>
<!-- 4633466224 -->
<g id="node21" class="node">
<title>4633466224</title>
<polygon fill="none" stroke="black" points="11.5,-620.5 11.5,-666.5 72.5,-666.5 72.5,-620.5 11.5,-620.5"/>
<text text-anchor="middle" x="42" y="-651.3" font-family="Times,serif" font-size="14.00"> </text>
<polyline fill="none" stroke="black" points="11.5,-643.5 72.5,-643.5"/>
<text text-anchor="middle" x="42" y="-628.3" font-family="Times,serif" font-size="14.00">21.0000</text>
</g>
<!-- 4633466224&#45;&gt;4633466416+ -->
<g id="edge26" class="edge">
<title>4633466224&#45;&gt;4633466416+</title>
<path fill="none" stroke="black" d="M59.38,-620.26C66.74,-610.84 75.32,-599.86 82.77,-590.32"/>
<polygon fill="black" stroke="black" points="85.57,-592.43 88.97,-582.39 80.06,-588.12 85.57,-592.43"/>
</g>
<!-- 4633466224&#45;&gt;4633466608+ -->
<g id="edge27" class="edge">
<title>4633466224&#45;&gt;4633466608+</title>
<path fill="none" stroke="black" d="M42,-620.4C42,-578.05 42,-485.57 42,-439.38"/>
<polygon fill="black" stroke="black" points="45.5,-439.22 42,-429.22 38.5,-439.22 45.5,-439.22"/>
</g>
<!-- 4633466224+&#45;&gt;4633466224 -->
<g id="edge10" class="edge">
<title>4633466224+&#45;&gt;4633466224</title>
<path fill="none" stroke="black" d="M42,-702.87C42,-695.18 42,-685.83 42,-676.9"/>
<polygon fill="black" stroke="black" points="45.5,-676.73 42,-666.73 38.5,-676.73 45.5,-676.73"/>
</g>
<!-- 4633465840 -->
<g id="node23" class="node">
<title>4633465840</title>
<polygon fill="none" stroke="black" points="17,-930.5 17,-976.5 71,-976.5 71,-930.5 17,-930.5"/>
<text text-anchor="middle" x="44" y="-961.3" font-family="Times,serif" font-size="14.00"> </text>
<polyline fill="none" stroke="black" points="17,-953.5 71,-953.5"/>
<text text-anchor="middle" x="44" y="-938.3" font-family="Times,serif" font-size="14.00">8.0000</text>
</g>
<!-- 4633465840&#45;&gt;4633466032+ -->
<g id="edge21" class="edge">
<title>4633465840&#45;&gt;4633466032+</title>
<path fill="none" stroke="black" d="M60.2,-930.26C67,-920.93 74.9,-910.08 81.8,-900.61"/>
<polygon fill="black" stroke="black" points="84.73,-902.54 87.79,-892.39 79.07,-898.41 84.73,-902.54"/>
</g>
<!-- 4633465840&#45;&gt;4633466224+ -->
<g id="edge23" class="edge">
<title>4633465840&#45;&gt;4633466224+</title>
<path fill="none" stroke="black" d="M43.81,-930.4C43.44,-888.05 42.64,-795.57 42.24,-749.38"/>
<polygon fill="black" stroke="black" points="45.74,-749.19 42.15,-739.22 38.74,-749.25 45.74,-749.19"/>
</g>
<!-- 4633465840+&#45;&gt;4633465840 -->
<g id="edge11" class="edge">
<title>4633465840+&#45;&gt;4633465840</title>
<path fill="none" stroke="black" d="M44,-1012.87C44,-1005.18 44,-995.83 44,-986.9"/>
<polygon fill="black" stroke="black" points="47.5,-986.73 44,-976.73 40.5,-986.73 47.5,-986.73"/>
</g>
</g>
</svg>
